<svg width="450" height="477" viewBox="0 0 450 477" fill="none" xmlns="http://www.w3.org/2000/svg">
<circle cx="225" cy="225" r="212.5" fill="white" stroke="#008DD2" stroke-width="25"/>
<line x1="44" y1="99.5" x2="399" y2="99.5" stroke="#008DD2" stroke-width="3"/>
<line x1="50" y1="350.5" x2="394" y2="350.5" stroke="#008DD2" stroke-width="3"/>
<line x1="130.84" y1="349.835" x2="188.79" y2="99.6615" stroke="#008DD2" stroke-width="3"/>
<line x1="323.064" y1="349.835" x2="381.014" y2="99.6615" stroke="#008DD2" stroke-width="3"/>
<line x1="13.5479" y1="297.624" x2="64.5479" y2="100.624" stroke="#008DD2" stroke-width="3"/>
<line x1="195.857" y1="349.835" x2="253.807" y2="99.6615" stroke="#008DD2" stroke-width="3"/>
<line x1="388.077" y1="349.851" x2="430.535" y2="156.678" stroke="#008DD2" stroke-width="3"/>
<line x1="64.4102" y1="349.835" x2="122.36" y2="99.6615" stroke="#008DD2" stroke-width="3"/>
<line x1="258.047" y1="349.835" x2="315.997" y2="99.6615" stroke="#008DD2" stroke-width="3"/>
<line x1="436" y1="186.5" x2="13" y2="186.5" stroke="#008DD2" stroke-width="3"/>
<line x1="436" y1="265.5" x2="17" y2="265.5" stroke="#008DD2" stroke-width="3"/>
<path d="M262.2 105.6V107.2C262.2 115.2 261.4 121.067 259.8 124.8C257.4 130.133 247.267 132.8 229.4 132.8C225.133 132.8 218.6 132.667 209.8 132.4C201.267 132.133 194.733 132 190.2 132C181.933 132 176.6 132.933 174.2 134.8C171.8 136.667 169 141.333 165.8 148.8L156.2 172C166.6 168.533 175.267 166.8 182.2 166.8C199.267 166.8 212.6 171.333 222.2 180.4C231.8 189.467 236.6 202 236.6 218C236.6 246.8 223.667 273.2 197.8 297.2C172.2 321.2 144.067 333.2 113.4 333.2C97.1333 333.2 84.6 330.133 75.8 324C66.7333 317.6 62.2 308.667 62.2 297.2C62.2 293.467 63.4 290 65.8 286.8C67.9333 283.6 70.8667 282 74.6 282C81.8 282 85.4 285.333 85.4 292C85.4 303.2 93.6667 308.8 110.2 308.8C136.333 308.8 159.133 299.333 178.6 280.4C198.067 261.2 207.8 240.667 207.8 218.8C207.8 201.467 198.6 192.8 180.2 192.8C170.333 192.8 159 196 146.2 202.4C142.733 204.267 138.6 209.2 133.8 217.2C129.267 225.2 123.933 229.2 117.8 229.2C108.467 229.2 103.8 224.133 103.8 214C103.8 211.067 105.133 207.867 107.8 204.4C110.467 200.933 113.267 198 116.2 195.6C119.4 192.933 121.133 191.333 121.4 190.8L144.6 138.4C150.467 125.067 156.467 116.267 162.6 112C168.733 107.467 178.733 105.2 192.6 105.2C196.867 105.2 203.267 105.6 211.8 106.4C220.6 107.2 227.267 107.6 231.8 107.6C239.8 107.6 249.933 106.933 262.2 105.6Z" fill="#E31E25"/>
<path d="M382.6 228.6H334.6V273H315.4V228.6H267.4V210.9H315.4V166.8H334.6V210.9H382.6V228.6Z" fill="#E31E25"/>
</svg>
